<?xml version="1.0" standalone="no"?>
<!DOCTYPE svg PUBLIC "-//W3C//DTD SVG 20010904//EN"
 "http://www.w3.org/TR/2001/REC-SVG-20010904/DTD/svg10.dtd">
<svg version="1.0" xmlns="http://www.w3.org/2000/svg"
 width="260.000000pt" height="260.000000pt" viewBox="0 0 260.000000 260.000000"
 preserveAspectRatio="xMidYMid meet">
<metadata>
Created by potrace 1.14, written by Peter Selinger 2001-2017
</metadata>
<g transform="translate(0.000000,260.000000) scale(0.100000,-0.100000)"
fill="#000000" stroke="none">
<path d="M1169 2596 c-2 -2 -29 -7 -59 -10 -137 -16 -286 -64 -427 -136 -320
-164 -558 -456 -643 -788 -30 -120 -31 -129 -35 -263 -5 -202 30 -367 114
-544 124 -262 323 -467 576 -596 94 -48 146 -81 101 -65 -17 6 -17 5 -5 -10
13 -16 12 -16 -8 -5 -15 7 -23 8 -23 1 0 -5 5 -10 12 -10 6 0 8 -3 4 -7 -4 -5
-14 0 -21 10 -8 12 -15 14 -20 8 -3 -6 -14 -11 -24 -11 -24 0 -54 -34 -49 -57
2 -10 14 -19 27 -21 18 -3 21 -6 11 -12 -25 -15 141 -51 310 -67 100 -9 486
-9 580 0 86 8 237 34 303 52 4 2 11 3 16 4 5 0 16 13 26 27 17 27 10 48 -18
49 -7 1 -11 6 -10 12 1 6 -19 16 -45 23 -26 7 -51 15 -56 18 -5 3 31 25 79 49
371 186 626 521 699 918 14 78 16 317 3 391 -68 384 -322 722 -675 898 -119
59 -264 108 -392 131 -38 7 -345 16 -351 11z m-480 -2479 c8 -10 7 -14 -2 -14
-8 0 -14 6 -14 14 0 7 1 13 2 13 2 0 8 -6 14 -13z"/>
</g>
</svg>
